<svg width="512" height="512" viewBox="0 0 512 512" fill="none" xmlns="http://www.w3.org/2000/svg">
    <!-- Background -->
    <rect width="512" height="512" rx="96" fill="#1c1815" />

    <ellipse cx="256" cy="432" rx="120" ry="16" fill="#3a312b" />
    <!-- Cup -->
    <path d="M156 260h200v88c0 44-36 80-80 80h-40c-44 0-80-36-80-80v-88z" fill="#2a241f" stroke="#c7b299"
        stroke-width="10" />

    <!-- Cup handle -->
    <path d="M356 280c32 0 56 24 56 52s-24 52-56 52" stroke="#c7b299" stroke-width="10" fill="none" />

    <!-- Saucer -->

    <!-- Steam -->
    <path d="M220 200c-12-20 12-36 0-56" stroke="#d8a657" stroke-width="8" stroke-linecap="round" />
    <path d="M256 192c-12-20 12-36 0-56" stroke="#e0a96d" stroke-width="8" stroke-linecap="round" />
    <path d="M292 200c-12-20 12-36 0-56" stroke="#f2c078" stroke-width="8" stroke-linecap="round" />

    <text x="160" y="355" font-size="100" font-family="monospace" fill="#e0a96d">
        &lt;
    </text>
    <text x="240" y="355" font-size="100" font-family="monospace" fill="#e0a96d">
        /&gt;
    </text>
</svg>